/* XPM */
static char *_72c500268f14987dfbbbf698663e3dd[] = {
/* columns rows colors chars-per-pixel */
"16 16 114 2 ",
"   c None",
".  c gray38",
"X  c gray39",
"o  c #676667",
"O  c #686868",
"+  c gray47",
"@  c #7C7C7C",
"#  c #7C7D7D",
"$  c gray49",
"%  c #7E7E7E",
"&  c #D63E3E",
"*  c #8C7575",
"=  c #BE7676",
"-  c #D06868",
";  c #E17A78",
":  c #E47A7A",
">  c #6BA16C",
",  c #9BB974",
"<  c #7F9481",
"1  c #808282",
"2  c #858181",
"3  c #868686",
"4  c gray54",
"5  c #8B8B8B",
"6  c #8D8D8D",
"7  c #8E8D8D",
"8  c #8E8E8E",
"9  c gray56",
"0  c #939393",
"q  c gray58",
"w  c gray60",
"e  c gray62",
"r  c #9F9F9F",
"t  c #A2A2A2",
"y  c gray64",
"u  c #A5A5A5",
"i  c gray65",
"p  c gray66",
"a  c #AAAAAA",
"s  c gray67",
"d  c #ACACAC",
"f  c gray68",
"g  c #AFAFAF",
"h  c gray70",
"j  c #B4B4B4",
"k  c #B7B7B7",
"l  c #B9B9B9",
"z  c #BBBBBB",
"x  c gray75",
"c  c #E08686",
"v  c #E78888",
"b  c #E09089",
"n  c #EA9596",
"m  c #ECA2A2",
"M  c #EEAAAA",
"N  c #EFADAD",
"B  c #E4BBBB",
"V  c #F1B8B8",
"C  c #94DA8B",
"Z  c #B9CB9B",
"A  c #A4E2A4",
"S  c #A7E9A7",
"D  c #BAEEBA",
"F  c #BDEFBD",
"G  c #C0C0C0",
"H  c #C3C3C3",
"J  c #C5C5C5",
"K  c gray78",
"L  c gray79",
"P  c #CBCBCB",
"I  c gray83",
"U  c #D3DBD4",
"Y  c gray85",
"T  c gray87",
"R  c #DFDFDF",
"E  c #F3C1C1",
"W  c #EDD7CF",
"Q  c #F9DEDE",
"!  c #DAF6DA",
"~  c #E1E1E1",
"^  c #E2E2E2",
"/  c #E4E4E4",
"(  c gray90",
")  c #E7E7E7",
"_  c #EBE9E9",
"`  c #EBEAEA",
"'  c gray92",
"]  c #E9ECEC",
"[  c #EBECEC",
"{  c #ECECEC",
"}  c gray93",
"|  c #EFEFEF",
" . c #FAE3E3",
".. c #FAE4E5",
"X. c #F6EFEF",
"o. c #EAFAEA",
"O. c #F6F6F6",
"+. c #F9F1F1",
"@. c #FDF1F2",
"#. c #F8F8F8",
"$. c #F9F9F9",
"%. c #FBFBFB",
"&. c #F9FCF8",
"*. c #F9FDF9",
"=. c #FAFEFA",
"-. c #FDFDFD",
";. c #FFFDFD",
":. c #FCFEFC",
">. c #FDFFFD",
",. c #FEFEFD",
"<. c #FEFEFE",
"1. c #FFFEFE",
"2. c #FEFFFE",
"3. c white",
/* pixels */
"          3 u j j u 3           ",
"        J ' $.-.-.$.' J         ",
"    q ~ <.3.3.3.3.3.3.<.~ q     ",
"    ^ 3.3.3.3.3.3.3.3.3.3.~     ",
"  x } { O.2.&.,.3.;.X.' | %.K   ",
"6 i O + $ U Z W 3.Q = 2 # r R 4 ",
"d e 3 ) @ < , b @.E c _ T % a s ",
"z t X y o > C ; n M m 3.3.h 8 k ",
"z t . u G A F ..v : V 3.3.e y l ",
"f e 0 3.:.S ! 3.N & B ] x @ Y s ",
"9 p g 3.=.D o.3. .- * 1 7 I } 5 ",
"  H #.3.2.*.>.3.1.+.` [ #.3.L   ",
"  5 ( 3.3.3.3.3.3.3.3.3.3./ 4   ",
"    w ( 3.3.3.3.3.3.3.3.( w     ",
"      4 P | %.3.3.%.| P 4       ",
"          6 d z z d 6           "
};
