/* XPM */
static char *_89f65c155c34de181ba6447ea728b9c[] = {
/* columns rows colors chars-per-pixel */
"64 64 135 2 ",
"   c None",
".  c #020202",
"X  c #0C0C0C",
"o  c #110707",
"O  c #110B0B",
"+  c #1F0B0B",
"@  c #141414",
"#  c #1B1B1B",
"$  c #242424",
"%  c #2B2B2B",
"&  c #333333",
"*  c #3C3C3C",
"=  c #760505",
"-  c #434343",
";  c #4C4C4C",
":  c #545454",
">  c #5C5C5C",
",  c #636363",
"<  c #6C6C6C",
"1  c #757575",
"2  c #7C7C7C",
"3  c #8B0B0B",
"4  c #910808",
"5  c #A30202",
"6  c #AF2407",
"7  c #A6330D",
"8  c #B92611",
"9  c #CC0101",
"0  c #CE0B0B",
"q  c #D00909",
"w  c #D00F10",
"e  c #C71616",
"r  c #CF1111",
"t  c #D01414",
"y  c #D11B1B",
"u  c #D32525",
"i  c #D52B2B",
"p  c #D73939",
"a  c #D83D3D",
"s  c #A55A2C",
"d  c #D94343",
"f  c #DB4A4A",
"g  c #CC5E50",
"h  c #DD5353",
"j  c #DE5C5C",
"k  c #C26969",
"l  c #DF6262",
"z  c #E06363",
"x  c #E16B6B",
"c  c #E46E70",
"v  c #E37373",
"b  c #E47979",
"n  c #3BBD2C",
"m  c #42B52C",
"M  c #4BB532",
"N  c #2FCB2F",
"B  c #3FC436",
"V  c #33CC33",
"C  c #3ACE3A",
"Z  c #3ED140",
"A  c #40CF40",
"S  c #44D144",
"D  c #4CD34C",
"F  c #5ACE54",
"G  c #4FD450",
"H  c #56D556",
"J  c #59D559",
"K  c #60D760",
"L  c #64D964",
"P  c #6ADC6C",
"I  c #72DC72",
"U  c #7BDF7B",
"Y  c #848484",
"T  c #8C8C8C",
"R  c #918F91",
"E  c #939393",
"W  c #9E9E9E",
"Q  c #B79696",
"!  c #A4A4A4",
"~  c #ADADAD",
"^  c #B3B3B3",
"/  c #B6B8B8",
"(  c #BBBBBB",
")  c #E68383",
"_  c #E78989",
"`  c #E88E8E",
"'  c #EA9393",
"]  c #D3A5A5",
"[  c #DEB2B2",
"{  c #EEA6A6",
"}  c #E3AEA5",
"|  c #EEACAC",
" . c #EFB0B0",
".. c #F0B4B4",
"X. c #F2BABB",
"o. c #81DF81",
"O. c #87E188",
"+. c #8BE28B",
"@. c #92E492",
"#. c #9BE69B",
"$. c #A2E9A2",
"%. c #ACEAAC",
"&. c #B0E5B0",
"*. c #B6EDB6",
"=. c #BCEEBC",
"-. c #C1EDBF",
";. c #C4C4C4",
":. c #CDCDCD",
">. c #D4D4D4",
",. c #DCDCDC",
"<. c #F3C2C2",
"1. c #F5CCCC",
"2. c #E2D2C3",
"3. c #F7D5D5",
"4. c #F7D9D9",
"5. c #F8DCDC",
"6. c #C0EFC0",
"7. c #CEE6CE",
"8. c #C4F1C4",
"9. c #CCF2CC",
"0. c #D3F4D3",
"q. c #DCF7DC",
"w. c #DFF8DF",
"e. c #E4E4E4",
"r. c #ECECEC",
"t. c #F4E7E2",
"y. c #FAE5E5",
"u. c #FBEBEB",
"i. c #E1F7E1",
"p. c #E6F9E6",
"a. c #ECFAEC",
"s. c #F4F4F4",
"d. c #FDF4F4",
"f. c #F4FCF4",
"g. c #FFFFFF",
/* pixels */
"                                                            . . . .                                                             ",
"                                                . X # % - : > , , > : - % # X .                                                 ",
"                                          . # * 1 ! ;.,.r.s.s.g.g.s.s.r.,.;.! 1 - # .                                           ",
"                                      X * Y ;.r.g.g.g.g.g.g.g.g.g.g.g.g.g.g.g.g.r.( Y * X                                       ",
"                                  @ ; ! e.g.g.g.g.g.g.g.g.g.g.g.g.g.g.g.g.g.g.g.g.g.g.e.! ; @                                   ",
"                              X - ! r.g.g.g.g.g.g.g.g.g.g.g.g.g.g.g.g.g.g.g.g.g.g.g.g.g.g.r.! - X                               ",
"                          . # Y e.g.g.g.g.g.g.g.g.g.g.g.g.g.g.g.g.g.g.g.g.g.g.g.g.g.g.g.g.g.g.e.Y # .                           ",
"                        . - / g.g.g.g.g.g.g.g.g.g.g.g.g.g.g.g.g.g.g.g.g.g.g.g.g.g.g.g.g.g.g.g.g.g./ - .                         ",
"                      X > ,.g.g.g.g.g.g.g.g.g.g.g.g.g.g.g.g.g.g.g.g.g.g.g.g.g.g.g.g.g.g.g.g.g.g.g.g.,.> X                       ",
"                    X 1 r.g.g.g.g.g.g.g.g.g.g.g.g.g.g.g.g.g.g.g.g.g.g.g.g.g.g.g.g.g.g.g.g.g.g.g.g.g.g.r.1 X                     ",
"                  O 2 s.g.g.g.g.g.g.g.g.g.g.g.g.g.g.g.g.g.g.g.g.g.g.g.g.g.g.g.g.g.g.g.g.g.g.g.g.g.g.g.g.s.2 X                   ",
"                X 1 s.g.g.g.g.g.g.g.g.g.g.g.g.g.g.g.g.g.g.g.g.g.g.g.g.g.g.g.g.g.g.g.g.g.g.g.g.g.g.g.g.g.g.s.1 X                 ",
"              . , r.g.g.g.g.g.g.g.g.g.g.g.g.g.g.g.g.g.g.g.g.g.g.g.g.g.g.g.g.g.g.g.g.g.g.g.g.g.g.g.g.g.g.g.g.r., .               ",
"            . - ,.g.g.g.g.g.g.g.g.g.g.g.g.g.g.g.g.g.g.g.g.g.g.g.g.g.g.g.g.g.g.g.g.g.g.g.g.g.g.g.g.g.g.g.g.g.g.,.- .             ",
"            $ ( g.g.g.g.g.g.g.g.g.g.g.g.g.g.g.g.g.g.g.g.g.g.g.g.g.g.g.g.g.g.g.g.g.g.g.g.g.g.g.g.g.g.g.g.g.g.g.g.;.$             ",
"          X T g.g.g.g.g.g.g.g.g.g.g.g.g.g.g.g.g.g.g.g.g.g.g.g.g.g.g.g.g.g.g.g.g.g.g.g.g.g.g.g.g.g.g.g.g.g.g.g.g.g.T X           ",
"        . ; e.g.g.g.g.g.g.g.g.g.g.g.g.g.g.g.g.g.g.g.g.g.g.g.g.g.g.g.g.g.g.g.g.g.g.g.g.g.g.g.g.g.g.g.g.g.g.g.g.g.g.e.; .         ",
"        @ ~ g.g.g.g.g.g.g.g.g.g.g.g.g.g.g.g.g.g.g.g.g.g.g.g.g.g.g.g.g.g.g.g.g.g.g.g.g.g.g.g.g.g.g.g.g.g.g.g.g.g.g.g.^ @         ",
"      . : s.g.g.g.g.g.g.g.g.g.g.g.g.g.g.g.g.g.g.g.g.g.g.g.g.g.g.g.g.g.g.g.g.g.g.g.g.g.g.g.g.g.g.g.g.g.g.g.g.g.g.g.g.s.: .       ",
"      @ ~ g.g.g.g.g.g.g.g.g.g.g.g.g.g.g.g.g.g.g.g.g.g.g.g.g.g.g.g.g.g.g.g.g.g.g.g.g.g.g.g.g.g.g.g.g.g.g.g.g.g.g.g.g.g.~ @       ",
"      ; r.g.e.^ ~ ^ ^ ~ ~ ^ ^ ^ ;.e.g.g.g.g.g.g.f.0.6.2.d.g.g.g.g.g.g.g.g.g.g.d.<...[ ^ ~ ^ ^ ~ ^ / :.r.g.g.g.g.g.g.g.r.-       ",
"    . T g.g.! @ X X X X X X X X @ & 2 >.g.g.g.g.a.L B s X.g.g.g.g.g.g.g.g.g.g.4.i q 3 O X X X X X X # * 2 :.g.g.g.g.g.g.E .     ",
"    $ :.g.g.W . . . . . . . . . . . . * ;.g.g.g.i.G n 7 c d.g.g.g.g.g.g.g.g.g.<.t 9 = X X X X X X . . . . $ T r.g.g.g.g.:.$     ",
"    : s.g.g.W X . % T T T T Y < * X . . * ,.g.g.0.D m 6 i 5.g.g.g.g.g.g.g.g.g.| 0 9 k ^ ^ ~ ^ ^ ! T > % . . X 1 s.g.g.g.s.:     ",
"  . Y g.g.g.W X . ; s.g.g.g.g.g.e.Y X . . W g.g.9.Z M 8 9 ' g.g.g.g.g.g.g.g.g.' 9 0 | g.g.g.g.g.g.g.s.>.1 @ . X T g.g.g.g.Y .   ",
"  @ ^ g.g.g.! . . ; s.g.g.g.g.g.g.r.; . . > s.g.=.V F g 9 f u.g.g.g.g.g.g.g.g.v 9 r <.g.g.g.g.g.g.g.g.g.s.T X . $ >.g.g.g.^ @   ",
"  % >.g.g.g.! . . ; s.g.g.g.g.g.g.g.Y . . - r.g.%.V P } w r ..g.g.g.g.g.g.g.d.j 9 u 4.g.g.g.g.g.g.g.g.g.g.s.> . . Y g.g.g.>.$   ",
"  * r.g.g.g.W X . ; s.g.g.g.g.g.g.g.Y . . - 7.i.#.N U t.d 9 x d.4.u.g.g.g.g.u.a 9 a u.g.g.g.g.g.g.g.g.g.g.g.^ X . ; r.g.g.r.-   ",
"  : s.g.g.g.W . . ; s.g.g.g.g.g.g.s.: . . > &.U U V O.f.` 9 u j i ' g.g.g.g.5.i 9 h d.g.g.g.g.g.g.g.g.g.g.g.,.% . % ,.g.g.s.:   ",
". < s.g.g.g.! . . ; s.g.g.g.g.g.r.E @ . . R %.C A V #.g.3.i 9 9 9 a u.g.g.g.<.y 9 v g.g.g.g.g.g.g.g.g.g.g.g.r.- . # :.g.g.g., . ",
". 1 g.g.g.g.W X . % W ! W W W Y ; X . . & ,.#.V V V %.g.d.x 9 9 9 0  .g.g.g. .0 9 ' g.g.g.g.g.g.g.g.g.g.g.g.r.- . # >.g.g.g.1 . ",
". 2 g.g.g.g.! . . . . . . X . . . . . % ^ g.@.V V C *.g.g.X.f ) p 9 z d.g.g.' 9 9 | g.g.g.g.g.g.g.g.g.g.g.g.r.& . % ,.g.g.g.2 . ",
". 2 g.g.g.g.! . . . . . . . . . O $ , :.g.f.o.N H K 8.g.g.d.u.g.' 9 u 1.g.g.b 9 t <.g.g.g.g.g.g.g.g.g.g.g.g.,.$ . * r.g.g.g.2 . ",
". 1 g.g.g.g.W X . & E W W W W ! / >.f.g.g.f.I N O.6.q.g.g.g.g.g.3.u 9 _ g.d.j 9 u 4.g.g.g.g.g.g.g.g.g.g.g.g./ X . , s.g.g.g.1 . ",
". < g.g.g.g.W . . ; s.g.g.g.g.g.g.g.g.g.g.f.L N +.f.g.g.g.g.g.g.d.x 9 a u.u.d 9 p y.g.g.g.g.g.g.g.g.g.g.g.g.2 . . W g.g.g.g.< . ",
". > s.g.g.g.! . . ; s.g.g.g.g.g.g.g.g.g.g.p.H V $.g.g.g.g.g.g.g.g...r 0  .y.i 9 h d.g.g.g.g.g.g.g.g.g.g.g.,.& . % >.g.g.g.s.> . ",
"  - r.g.g.g.W X . ; s.g.g.g.g.g.g.g.g.g.g.q.D V *.g.g.g.g.g.g.g.g.u.d 9 l <.y 9 x g.g.g.g.g.g.g.g.g.g.g.g.Y . . 1 g.g.g.g.r.-   ",
"  % ,.g.g.g.! . . ; s.g.g.g.g.g.g.g.g.g.g.9.S C 8.g.g.g.g.g.g.g.g.g.' 9 u ) r 9 _ g.g.g.g.g.g.g.g.g.g.g.^ # . % >.g.g.g.f.,.%   ",
"  # ( g.g.g.W X . ; s.g.g.g.g.g.g.g.g.g.g.=.C S 0.g.g.g.g.g.g.g.g.g.3.u 9 u 9 0 { g.g.g.g.g.g.g.g.g.g.~ $ . @ ! g.g.g.g.g.( #   ",
"  . E g.g.g.W . . ; s.g.g.g.g.g.g.g.g.g.g.&.V D q.g.g.g.g.g.g.g.g.g.g.x 9 9 9 r <.g.g.g.g.g.g.g.s.:.1 @ . @ T g.g.g.g.g.g.E .   ",
"  . > s.g.g.W X . ; s.g.g.g.g.g.g.g.g.g.g.#.V J a.g.g.g.g.g.g.g.g.g.g...r 9 9 e Q / / / ( / ! Y : # . . $ W s.g.g.g.g.g.s.> .   ",
"    % ,.g.g.! . . ; s.g.g.g.g.g.g.g.g.g.g.+.N L f.g.g.g.g.g.g.g.g.g.g.u.f 9 9 5 + X O X X X X . . . @ > ;.g.g.g.g.g.g.g.,.%     ",
"    X W g.g.! X . : s.g.g.g.g.g.g.g.g.g.f.o.V U f.g.g.g.g.g.g.g.g.g.g.g.' 0 q 4 o X X . X . X # & < ( r.g.g.g.g.g.g.g.g.! X     ",
"    . > s.g.,.! ! ( g.g.g.g.g.g.g.g.g.g.g.0.=.0.g.g.g.g.g.g.g.g.g.g.g.g.y.| { ] ! ! ! ! ! ! ~ ;.e.g.g.g.g.g.g.g.g.g.g.s.: .     ",
"      # ;.g.g.g.g.g.g.g.g.g.g.g.g.g.g.g.g.g.g.g.g.g.g.g.g.g.g.g.g.g.g.g.g.g.g.g.g.g.g.g.g.g.g.g.g.g.g.g.g.g.g.g.g.g.g.;.#       ",
"      . < g.g.g.g.g.g.g.g.g.g.g.g.g.g.g.g.g.g.g.g.g.g.g.g.g.g.g.g.g.g.g.g.g.g.g.g.g.g.g.g.g.g.g.g.g.g.g.g.g.g.g.g.g.s.< .       ",
"        $ ;.g.g.g.g.g.g.g.g.g.g.g.g.g.g.g.g.g.g.g.g.g.g.g.g.g.g.g.g.g.g.g.g.g.g.g.g.g.g.g.g.g.g.g.g.g.g.g.g.g.g.g.g.;.$         ",
"        . > s.g.g.g.g.g.g.g.g.g.g.g.g.g.g.g.g.g.g.g.g.g.g.g.g.g.g.g.g.g.g.g.g.g.g.g.g.g.g.g.g.g.g.g.g.g.g.g.g.g.g.s., .         ",
"          @ ! g.g.g.g.g.g.g.g.g.g.g.g.g.g.g.g.g.g.g.g.g.g.g.g.g.g.g.g.g.g.g.g.g.g.g.g.g.g.g.g.g.g.g.g.g.g.g.g.g.g.! @           ",
"            * >.g.g.g.g.g.g.g.g.g.g.g.g.g.g.g.g.g.g.g.g.g.g.g.g.g.g.g.g.g.g.g.g.g.g.g.g.g.g.g.g.g.g.g.g.g.g.g.g.>.*             ",
"            . , r.g.g.g.g.g.g.g.g.g.g.g.g.g.g.g.g.g.g.g.g.g.g.g.g.g.g.g.g.g.g.g.g.g.g.g.g.g.g.g.g.g.g.g.g.g.g.r., .             ",
"              X Y g.g.g.g.g.g.g.g.g.g.g.g.g.g.g.g.g.g.g.g.g.g.g.g.g.g.g.g.g.g.g.g.g.g.g.g.g.g.g.g.g.g.g.g.g.g.Y X               ",
"                # W g.g.g.g.g.g.g.g.g.g.g.g.g.g.g.g.g.g.g.g.g.g.g.g.g.g.g.g.g.g.g.g.g.g.g.g.g.g.g.g.g.g.g.g.W #                 ",
"                  # W g.g.g.g.g.g.g.g.g.g.g.g.g.g.g.g.g.g.g.g.g.g.g.g.g.g.g.g.g.g.g.g.g.g.g.g.g.g.g.g.g.g.W #                   ",
"                    # W s.g.g.g.g.g.g.g.g.g.g.g.g.g.g.g.g.g.g.g.g.g.g.g.g.g.g.g.g.g.g.g.g.g.g.g.g.g.g.g.W #                     ",
"                      # T s.g.g.g.g.g.g.g.g.g.g.g.g.g.g.g.g.g.g.g.g.g.g.g.g.g.g.g.g.g.g.g.g.g.g.g.g.s.Y @                       ",
"                        X < ,.g.g.g.g.g.g.g.g.g.g.g.g.g.g.g.g.g.g.g.g.g.g.g.g.g.g.g.g.g.g.g.g.g.g.,.< X                         ",
"                          . * ~ s.g.g.g.g.g.g.g.g.g.g.g.g.g.g.g.g.g.g.g.g.g.g.g.g.g.g.g.g.g.g.s.~ * .                           ",
"                              # < :.g.g.g.g.g.g.g.g.g.g.g.g.g.g.g.g.g.g.g.g.g.g.g.g.g.g.g.g.:.< #                               ",
"                                . $ 2 :.s.g.g.g.g.g.g.g.g.g.g.g.g.g.g.g.g.g.g.g.g.g.g.s.:.2 $ .                                 ",
"                                    . $ , ^ e.g.g.g.g.g.g.g.g.g.g.g.g.g.g.g.g.g.g.e.~ , $ .                                     ",
"                                        . @ & < ! :.r.s.g.g.g.g.g.g.g.g.s.r.:.! < * @ .                                         ",
"                                              . X $ * : < Y T W E E Y < : * $ X .                                               ",
"                                                      . . . . . X . . . .                                                       "
};
