/* XPM */
static char *_16f6feb38bb493bb61e18ea7b634707[] = {
/* columns rows colors chars-per-pixel */
"32 32 245 2 ",
"   c None",
".  c #0E0E0E",
"X  c #101010",
"o  c #111111",
"O  c gray10",
"+  c gray12",
"@  c #202020",
"#  c #222222",
"$  c #232323",
"%  c #252525",
"&  c #272627",
"*  c #272727",
"=  c #282828",
"-  c #2F2F2F",
";  c #303130",
":  c gray20",
">  c #343434",
",  c #353535",
"<  c gray21",
"1  c #3A3A3A",
"2  c gray23",
"3  c gray24",
"4  c #77751F",
"5  c gray25",
"6  c #434343",
"7  c gray28",
"8  c #444944",
"9  c #484848",
"0  c gray29",
"q  c #4E4D4E",
"w  c #4E4E4E",
"e  c gray31",
"r  c #505050",
"t  c #515151",
"y  c gray32",
"u  c #565656",
"i  c gray34",
"p  c gray35",
"a  c #5A5A5A",
"s  c #5B5B5B",
"d  c gray36",
"f  c #5C5D5D",
"g  c #5D5D5D",
"h  c #685D5D",
"j  c #705454",
"k  c #606060",
"l  c gray38",
"z  c #616363",
"x  c #626262",
"c  c gray39",
"v  c #626464",
"b  c #646464",
"n  c #656565",
"m  c #656666",
"M  c #676767",
"N  c #686868",
"B  c #6A6A6A",
"V  c gray42",
"C  c #6C6C6C",
"Z  c #6D6D6D",
"A  c gray44",
"S  c #717171",
"D  c gray45",
"F  c gray46",
"G  c #7B7B7B",
"H  c #7E7E7E",
"J  c #B70A0A",
"K  c #CF1111",
"L  c #CD1E1E",
"P  c #D11B1B",
"I  c #D22020",
"U  c #D32525",
"Y  c #D32626",
"T  c #D42727",
"R  c #D52828",
"E  c #D53030",
"W  c #D63535",
"Q  c #D73838",
"!  c #D93A3B",
"~  c #867C31",
"^  c #874747",
"/  c #916262",
"(  c #D94141",
")  c #D94444",
"_  c #D94545",
"`  c #DB4D4D",
"'  c #DC4D4E",
"]  c #C35D5D",
"[  c #DD5858",
"{  c #DE5B5B",
"}  c #DE5C5C",
"|  c #E06767",
" . c #E46B6D",
".. c #E37474",
"X. c #E27B7B",
"o. c #E47878",
"O. c #3FCF40",
"+. c #50D551",
"@. c #5BD65B",
"#. c #5ED75E",
"$. c #5FD75F",
"%. c #68DA68",
"&. c #6FDB6F",
"*. c #7BDE7B",
"=. c #78E17A",
"-. c #A2BE7E",
";. c #808080",
":. c #818181",
">. c gray51",
",. c #848484",
"<. c #868686",
"1. c gray54",
"2. c #8D8D8D",
"3. c gray56",
"4. c gray59",
"5. c #979797",
"6. c #989898",
"7. c gray60",
"8. c #9A9A9A",
"9. c #9B9B9B",
"0. c gray61",
"q. c #9D9D9D",
"w. c gray62",
"e. c #9FA69F",
"r. c #ACBF88",
"t. c gray64",
"y. c gray66",
"u. c gray67",
"i. c #AFAFAF",
"p. c gray69",
"a. c #B4B4B4",
"s. c #B9B9B9",
"d. c gray73",
"f. c #BBBBBB",
"g. c #BCBCBC",
"h. c gray74",
"j. c #BEBDBE",
"k. c #E99191",
"l. c #E99292",
"z. c #E99695",
"x. c #EA9696",
"c. c #EB9696",
"v. c #EEABAB",
"b. c #EFAEAE",
"n. c #EFB1B1",
"m. c #F0B3B3",
"M. c #F0B4B4",
"N. c #F4BDBF",
"B. c #87D687",
"V. c #87E488",
"C. c #92E593",
"Z. c #A1E8A1",
"A. c #BAE8B5",
"S. c #BBEEBB",
"D. c #BCEEBC",
"F. c #C1C1C1",
"G. c gray76",
"H. c #C3C3C3",
"J. c gray77",
"K. c #C5C5C5",
"L. c #C6C6C6",
"P. c gray79",
"I. c #CACACA",
"U. c #CBCBCB",
"Y. c LightGray",
"T. c #D5D5D5",
"R. c #D8D8D8",
"E. c gray85",
"W. c #DADADA",
"Q. c gainsboro",
"!. c #DDDDDD",
"~. c gray87",
"^. c #F0C3C3",
"/. c #F0C5C5",
"(. c #F4C9C9",
"). c #F7D6D6",
"_. c #F8DDDD",
"`. c #CCE0CC",
"'. c #C5F1C5",
"]. c #CBF2CB",
"[. c #CEF3CE",
"{. c #CBF4CC",
"}. c #D9F6D9",
"|. c #DBF6DB",
" X c #F7E0DF",
".X c gray88",
"XX c #E1E1E1",
"oX c #E2E2E2",
"OX c gray89",
"+X c #E4E4E4",
"@X c gray90",
"#X c #E6E6E6",
"$X c #E7E7E7",
"%X c gray91",
"&X c #E9E9E9",
"*X c #EAEAEA",
"=X c gray92",
"-X c #ECECEC",
";X c gray93",
":X c #EEEEEE",
">X c #EFEFEF",
",X c #FAE8E8",
"<X c #FBE8E8",
"1X c #FBE9E9",
"2X c #FBEAEA",
"3X c #FBEBEB",
"4X c #FBECEC",
"5X c #FBEDED",
"6X c #E3F8E4",
"7X c #E5F9E5",
"8X c #E7F9E7",
"9X c #E9F6E9",
"0X c #EEF1EE",
"qX c gray94",
"wX c #F1F1F1",
"eX c gray95",
"rX c #F3F3F3",
"tX c #F4F4F4",
"yX c #F6F6F6",
"uX c gray97",
"iX c #FDF7F7",
"pX c #F4FCF4",
"aX c #F8F8F8",
"sX c #F9F9F9",
"dX c gray98",
"fX c #FBFBFB",
"gX c #FCF8F8",
"hX c #FEF9F9",
"jX c #FCFAFA",
"kX c #FEFAFA",
"lX c #FFFAFB",
"zX c #FEFBFB",
"xX c #FAFCFC",
"cX c #FBFDFD",
"vX c gray99",
"bX c #FDFDFD",
"nX c #FEFCFC",
"mX c #FFFDFD",
"MX c #FCFEFC",
"NX c #FDFEFD",
"BX c #FDFFFD",
"VX c #FEFEFE",
"CX c #FFFEFE",
"ZX c #FEFFFE",
"AX c white",
/* pixels */
"                          5 y s s y 5                           ",
"                    s 3.d.T.+X*X*X+XT.s.3.s                     ",
"                c p.#XvXAXAXAXAXAXAXAXAXvX#Xp.c                 ",
"            2 8.$XAXAXAXAXAXAXAXAXAXAXAXAXAXAX$X8.2             ",
"          w f.dXAXAXAXAXAXAXAXAXAXAXAXAXAXAXAXAXdXf.w           ",
"        w L.VXAXAXAXAXAXAXAXAXAXAXAXAXAXAXAXAXAXAXVXL.w         ",
"      3 g.VXAXAXAXAXAXAXAXAXAXAXAXAXAXAXAXAXAXAXAXAXVXg.3       ",
"      0.fXAXAXAXAXAXAXAXAXAXAXAXAXAXAXAXAXAXAXAXAXAXAXfX0.      ",
"    M &XAXAXAXAXAXAXAXAXAXAXAXAXAXAXAXAXAXAXAXAXAXAXAXAX&XM     ",
"    a.bXdXdXdXdXbXAXAXAXBXMXAXAXAXAXAXCXzXjXdXdXdXVXAXAXAXa.    ",
"  l +Xw.c c x b H K.fXAX'.r. XAXAXAXAX<XX./ z c n >.G.uXAX&Xk   ",
"  5.yXs . 0 y 7 @ $ i.ZXC.4 z.AXAXAXAX(.L ^ v c i : # :.eXVX4.  ",
"  F.dXa > .XuXeXg.$ q 0XV.~ ' 4XAXAXAXn.U /.xXdXuX.XG O 9.AXF.  ",
"7 Q.sXa < &XAXAXrX0 ; `.=.-.! v.2XmXAXx.E _.AXAXAXAX:Xw 6 >XQ.7 ",
"a *XsXa > oXsXyXH.& 8 B.+.A. .I { 2XAXo.( 5XAXAXAXAXAX<.* W.-Xa ",
"x qXsXd o y a r % + e.&.O.{.N.) Y m.kX} [ iXAXAXAXAXAX2.= E.eXx ",
"c qXaXd X e i p D j.9X%.*.6XlX1X| | ,X_ ..mXAXAXAXAXvXA 1 &XwXc ",
"s =XsXa > XXaXuXvXAX7X$.D.AXAXAXM.Q M.W k.AXAXAXAXAX@X2 V fX=Xs ",
"0 ~.sXa < &XAXAXAXAX}.@.[.AXAXAX3X` [ T b.AXAXAXAXsX1.* F.AX~.0 ",
"- K.dXa < &XAXAXAXAX].@.|.AXAXAXAXl.K P ^.cXdXyX!.,.* 2.dXAXJ.- ",
"  q.uXp , &XAXAXAXAXS.#.8XAXAXAXAX).R J j m n u , < 7.tXAXVX0.  ",
"  N %X6.;.wXAXAXAXAX[.Z.pXAXAXAXAXhXc.] h f g B 5.R.vXAXAX;XM   ",
"    h.bXdXVXAXAXAXAXNXMXAXAXAXAXAXAXnXgXaXaXaXfXAXAXAXAXAXh.    ",
"    S >XAXAXAXAXAXAXAXAXAXAXAXAXAXAXAXAXAXAXAXAXAXAXAXAX:XS     ",
"      y.bXAXAXAXAXAXAXAXAXAXAXAXAXAXAXAXAXAXAXAXAXAXAXbXy.      ",
"      9 P.AXAXAXAXAXAXAXAXAXAXAXAXAXAXAXAXAXAXAXAXAXAXP.9       ",
"        s Y.AXAXAXAXAXAXAXAXAXAXAXAXAXAXAXAXAXAXAXAXY.s         ",
"          d I.bXAXAXAXAXAXAXAXAXAXAXAXAXAXAXAXAXbXI.d           ",
"            0 u.wXAXAXAXAXAXAXAXAXAXAXAXAXAXAXwXu.0             ",
"                F F.qXVXAXAXAXAXAXAXAXAXVXqXF.F                 ",
"                    Z t.U.OX>XtXtX>XOXU.t.Z                     ",
"                        < t c C C c t <                         "
};
